<!-- SVG Icon Library untuk SiBersih -->
<svg xmlns="http://www.w3.org/2000/svg" style="display: none;">
    
    <!-- Location/Map Pin -->
    <symbol id="icon-location" viewBox="0 0 24 24">
        <path fill="currentColor" d="M12 2C8.13 2 5 5.13 5 9c0 5.25 7 13 7 13s7-7.75 7-13c0-3.87-3.13-7-7-7zm0 9.5c-1.38 0-2.5-1.12-2.5-2.5s1.12-2.5 2.5-2.5 2.5 1.12 2.5 2.5-1.12 2.5-2.5 2.5z"/>
    </symbol>
    
    <!-- Time/Clock -->
    <symbol id="icon-clock" viewBox="0 0 24 24">
        <path fill="currentColor" d="M12 2C6.48 2 2 6.48 2 12s4.48 10 10 10 10-4.48 10-10S17.52 2 12 2zm0 18c-4.41 0-8-3.59-8-8s3.59-8 8-8 8 3.59 8 8-3.59 8-8 8zm.5-13H11v6l5.25 3.15.75-1.23-4.5-2.67z"/>
    </symbol>
    
    <!-- Star Rating -->
    <symbol id="icon-star" viewBox="0 0 24 24">
        <path fill="currentColor" d="M12 17.27L18.18 21l-1.64-7.03L22 9.24l-7.19-.61L12 2 9.19 8.63 2 9.24l5.46 4.73L5.82 21z"/>
    </symbol>
    
    <!-- Package/Box -->
    <symbol id="icon-package" viewBox="0 0 24 24">
        <path fill="currentColor" d="M20 6h-4V4c0-1.1-.9-2-2-2h-4c-1.1 0-2 .9-2 2v2H4c-1.1 0-2 .9-2 2v12c0 1.1.9 2 2 2h16c1.1 0 2-.9 2-2V8c0-1.1-.9-2-2-2zm-6 0h-4V4h4v2z"/>
    </symbol>
    
    <!-- Wash/Laundry -->
    <symbol id="icon-wash" viewBox="0 0 24 24">
        <path fill="currentColor" d="M18 2.01L6 2c-1.11 0-2 .89-2 2v16c0 1.11.89 2 2 2h12c1.11 0 2-.89 2-2V4c0-1.11-.89-1.99-2-1.99zM18 20H6L5.99 4H18v16zm-6.5-14c.83 0 1.5.67 1.5 1.5S12.33 9 11.5 9 10 8.33 10 7.5 10.67 6 11.5 6zm0 2.5c2.21 0 4 1.79 4 4s-1.79 4-4 4-4-1.79-4-4 1.79-4 4-4z"/>
    </symbol>
    
    <!-- Voucher/Ticket -->
    <symbol id="icon-voucher" viewBox="0 0 24 24">
        <path fill="currentColor" d="M20 6h-2.18c.11-.31.18-.65.18-1 0-1.66-1.34-3-3-3-1.05 0-1.96.54-2.5 1.35l-.5.67-.5-.68C10.96 2.54 10.05 2 9 2 7.34 2 6 3.34 6 5c0 .35.07.69.18 1H4c-1.11 0-1.99.89-1.99 2L2 19c0 1.11.89 2 2 2h16c1.11 0 2-.89 2-2V8c0-1.11-.89-2-2-2zm-5-2c.55 0 1 .45 1 1s-.45 1-1 1-1-.45-1-1 .45-1 1-1zM9 4c.55 0 1 .45 1 1s-.45 1-1 1-1-.45-1-1 .45-1 1-1zm11 15H4v-2h16v2zm0-5H4V8h5.08L7 10.83 8.62 12 11 8.76l1-1.36 1 1.36L15.38 12 17 10.83 14.92 8H20v6z"/>
    </symbol>
    
    <!-- Money/Rupiah -->
    <symbol id="icon-money" viewBox="0 0 24 24">
        <path fill="currentColor" d="M11.8 10.9c-2.27-.59-3-1.2-3-2.15 0-1.09 1.01-1.85 2.7-1.85 1.78 0 2.44.85 2.5 2.1h2.21c-.07-1.72-1.12-3.3-3.21-3.81V3h-3v2.16c-1.94.42-3.5 1.68-3.5 3.61 0 2.31 1.91 3.46 4.7 4.13 2.5.6 3 1.48 3 2.41 0 .69-.49 1.79-2.7 1.79-2.06 0-2.87-.92-2.98-2.1h-2.2c.12 2.19 1.76 3.42 3.68 3.83V21h3v-2.15c1.95-.37 3.5-1.5 3.5-3.55 0-2.84-2.43-3.81-4.7-4.4z"/>
    </symbol>
    
    <!-- User/Profile -->
    <symbol id="icon-user" viewBox="0 0 24 24">
        <path fill="currentColor" d="M12 12c2.21 0 4-1.79 4-4s-1.79-4-4-4-4 1.79-4 4 1.79 4 4 4zm0 2c-2.67 0-8 1.34-8 4v2h16v-2c0-2.66-5.33-4-8-4z"/>
    </symbol>
    
    <!-- Settings/Gear -->
    <symbol id="icon-settings" viewBox="0 0 24 24">
        <path fill="currentColor" d="M19.14 12.94c.04-.3.06-.61.06-.94 0-.32-.02-.64-.07-.94l2.03-1.58c.18-.14.23-.41.12-.61l-1.92-3.32c-.12-.22-.37-.29-.59-.22l-2.39.96c-.5-.38-1.03-.7-1.62-.94L14.4 2.81c-.04-.24-.24-.41-.48-.41h-3.84c-.24 0-.43.17-.47.41l-.36 2.54c-.59.24-1.13.57-1.62.94l-2.39-.96c-.22-.08-.47 0-.59.22L2.74 8.87c-.12.21-.08.47.12.61l2.03 1.58c-.05.3-.09.63-.09.94s.02.64.07.94l-2.03 1.58c-.18.14-.23.41-.12.61l1.92 3.32c.12.22.37.29.59.22l2.39-.96c.5.38 1.03.7 1.62.94l.36 2.54c.05.24.24.41.48.41h3.84c.24 0 .44-.17.47-.41l.36-2.54c.59-.24 1.13-.56 1.62-.94l2.39.96c.22.08.47 0 .59-.22l1.92-3.32c.12-.22.07-.47-.12-.61l-2.01-1.58zM12 15.6c-1.98 0-3.6-1.62-3.6-3.6s1.62-3.6 3.6-3.6 3.6 1.62 3.6 3.6-1.62 3.6-3.6 3.6z"/>
    </symbol>
    
    <!-- Logout -->
    <symbol id="icon-logout" viewBox="0 0 24 24">
        <path fill="currentColor" d="M17 7l-1.41 1.41L18.17 11H8v2h10.17l-2.58 2.58L17 17l5-5zM4 5h8V3H4c-1.1 0-2 .9-2 2v14c0 1.1.9 2 2 2h8v-2H4V5z"/>
    </symbol>
    
    <!-- Dashboard/Grid -->
    <symbol id="icon-dashboard" viewBox="0 0 24 24">
        <path fill="currentColor" d="M3 13h8V3H3v10zm0 8h8v-6H3v6zm10 0h8V11h-8v10zm0-18v6h8V3h-8z"/>
    </symbol>
    
    <!-- Message/Chat -->
    <symbol id="icon-message" viewBox="0 0 24 24">
        <path fill="currentColor" d="M20 2H4c-1.1 0-1.99.9-1.99 2L2 22l4-4h14c1.1 0 2-.9 2-2V4c0-1.1-.9-2-2-2zM6 9h12v2H6V9zm8 5H6v-2h8v2zm4-6H6V6h12v2z"/>
    </symbol>
    
    <!-- Check/Success -->
    <symbol id="icon-check" viewBox="0 0 24 24">
        <path fill="currentColor" d="M9 16.17L4.83 12l-1.42 1.41L9 19 21 7l-1.41-1.41z"/>
    </symbol>
    
    <!-- Close/X -->
    <symbol id="icon-close" viewBox="0 0 24 24">
        <path fill="currentColor" d="M19 6.41L17.59 5 12 10.59 6.41 5 5 6.41 10.59 12 5 17.59 6.41 19 12 13.41 17.59 19 19 17.59 13.41 12z"/>
    </symbol>
    
    <!-- Upload/Image -->
    <symbol id="icon-upload" viewBox="0 0 24 24">
        <path fill="currentColor" d="M19.35 10.04C18.67 6.59 15.64 4 12 4 9.11 4 6.6 5.64 5.35 8.04 2.34 8.36 0 10.91 0 14c0 3.31 2.69 6 6 6h13c2.76 0 5-2.24 5-5 0-2.64-2.05-4.78-4.65-4.96zM14 13v4h-4v-4H7l5-5 5 5h-3z"/>
    </symbol>
    
    <!-- Filter -->
    <symbol id="icon-filter" viewBox="0 0 24 24">
        <path fill="currentColor" d="M10 18h4v-2h-4v2zM3 6v2h18V6H3zm3 7h12v-2H6v2z"/>
    </symbol>
    
    <!-- Truck/Delivery -->
    <symbol id="icon-truck" viewBox="0 0 24 24">
        <path fill="currentColor" d="M18 18.5c.83 0 1.5-.67 1.5-1.5s-.67-1.5-1.5-1.5-1.5.67-1.5 1.5.67 1.5 1.5 1.5zM19.5 9.5h-1V6c0-.55-.45-1-1-1h-11c-.55 0-1 .45-1 1v9c0 .55.45 1 1 1h.5c0 1.66 1.34 3 3 3s3-1.34 3-3h4c0 1.66 1.34 3 3 3s3-1.34 3-3H23v-4.5c0-.83-.67-1.5-1.5-1.5zm-9 9c-.83 0-1.5-.67-1.5-1.5s.67-1.5 1.5-1.5 1.5.67 1.5 1.5-.67 1.5-1.5 1.5zm9-3h-1.5v-3.5h1.5c.28 0 .5.22.5.5V15c0 .28-.22.5-.5.5z"/>
    </symbol>
    
    <!-- Calendar -->
    <symbol id="icon-calendar" viewBox="0 0 24 24">
        <path fill="currentColor" d="M19 3h-1V1h-2v2H8V1H6v2H5c-1.11 0-1.99.9-1.99 2L3 19c0 1.1.89 2 2 2h14c1.1 0 2-.9 2-2V5c0-1.1-.9-2-2-2zm0 16H5V8h14v11zM7 10h5v5H7z"/>
    </symbol>
    
    <!-- Distance/Route -->
    <symbol id="icon-distance" viewBox="0 0 24 24">
        <path fill="currentColor" d="M12 2C6.48 2 2 6.48 2 12s4.48 10 10 10 10-4.48 10-10S17.52 2 12 2zm0 18c-4.42 0-8-3.58-8-8s3.58-8 8-8 8 3.58 8 8-3.58 8-8 8zm1-13h-2v6l5.25 3.15.75-1.23-4-2.42z"/>
    </symbol>
    
    <!-- Weight/Scale -->
    <symbol id="icon-weight" viewBox="0 0 24 24">
        <path fill="currentColor" d="M12 3c-4.97 0-9 4.03-9 9s4.03 9 9 9 9-4.03 9-9-4.03-9-9-9zm0 16c-3.86 0-7-3.14-7-7s3.14-7 7-7 7 3.14 7 7-3.14 7-7 7zm-1-11h2v6h-2zm0 8h2v2h-2z"/>
    </symbol>
    
    <!-- Edit/Pencil -->
    <symbol id="icon-edit" viewBox="0 0 24 24">
        <path fill="currentColor" d="M3 17.25V21h3.75L17.81 9.94l-3.75-3.75L3 17.25zM20.71 7.04c.39-.39.39-1.02 0-1.41l-2.34-2.34c-.39-.39-1.02-.39-1.41 0l-1.83 1.83 3.75 3.75 1.83-1.83z"/>
    </symbol>
    
    <!-- Menu/Hamburger -->
    <symbol id="icon-menu" viewBox="0 0 24 24">
        <path fill="currentColor" d="M3 18h18v-2H3v2zm0-5h18v-2H3v2zm0-7v2h18V6H3z"/>
    </symbol>
    
    <!-- Chevron Down -->
    <symbol id="icon-chevron-down" viewBox="0 0 24 24">
        <path fill="currentColor" d="M7.41 8.59L12 13.17l4.59-4.58L18 10l-6 6-6-6 1.41-1.41z"/>
    </symbol>
    
    <!-- Admin Shield -->
    <symbol id="icon-shield" viewBox="0 0 24 24">
        <path fill="currentColor" d="M12 1L3 5v6c0 5.55 3.84 10.74 9 12 5.16-1.26 9-6.45 9-12V5l-9-4zm0 10.99h7c-.53 4.12-3.28 7.79-7 8.94V12H5V6.3l7-3.11v8.8z"/>
    </symbol>
    
</svg>
